# xmcd
#
# Track frame offsets: 
#        150
#        30879
#        51357
#        70766
#        96589
#        115649
#        131441
#        155725
#        181922
#        211333
#        232790
#        253352
#
# Disc length: 3786 seconds
#
# Revision: 4
# Processed by: cddbd v1.5.2PL0 Copyright (c) Steve Scherf et al.
# Submitted via: ExactAudioCopy v1.0b3
#
DISCID=a00ec80c
DTITLE=Bonamassa, Joe - Dust Bowl
DYEAR=2011
DGENRE=Blues
TTITLE0=Slow Train
TTITLE1=Dust Bowl
TTITLE2=Tennessee Plates
TTITLE3=The Meaning Of The Blues
TTITLE4=Black Lung Heartache
TTITLE5=You Better Watch Yourself
TTITLE6=The Last Matador Of Bayonne
TTITLE7=Heartbreaker
TTITLE8=No Love On The Street
TTITLE9=The Whale That Swallowed Jonah
TTITLE10=Sweet Rowena
TTITLE11=Prisoner
EXTD=
EXTT0=
EXTT1=
EXTT2=
EXTT3=
EXTT4=
EXTT5=
EXTT6=
EXTT7=
EXTT8=
EXTT9=
EXTT10=
EXTT11=
PLAYORDER=
